<svg width="33" height="26" viewBox="0 0 33 26" fill="none" xmlns="http://www.w3.org/2000/svg">
<path d="M10.8971 25.408C8.94776 25.408 7.20243 24.932 5.66109 23.98C4.11976 23.0053 2.90709 21.6 2.02309 19.764C1.13909 17.928 0.697094 15.7067 0.697094 13.1C0.697094 10.4933 1.13909 8.272 2.02309 6.436C2.90709 4.6 4.11976 3.206 5.66109 2.254C7.20243 1.27933 8.94776 0.792 10.8971 0.792C12.8691 0.792 14.6144 1.27933 16.1331 2.254C17.6744 3.206 18.8871 4.6 19.7711 6.436C20.6551 8.272 21.0971 10.4933 21.0971 13.1C21.0971 15.7067 20.6551 17.928 19.7711 19.764C18.8871 21.6 17.6744 23.0053 16.1331 23.98C14.6144 24.932 12.8691 25.408 10.8971 25.408ZM10.8971 20.75C11.8264 20.75 12.6311 20.4893 13.3111 19.968C14.0138 19.4467 14.5578 18.6193 14.9431 17.486C15.3511 16.3527 15.5551 14.8907 15.5551 13.1C15.5551 11.3093 15.3511 9.84733 14.9431 8.714C14.5578 7.58067 14.0138 6.75333 13.3111 6.232C12.6311 5.71067 11.8264 5.45 10.8971 5.45C9.99043 5.45 9.18576 5.71067 8.48309 6.232C7.80309 6.75333 7.25909 7.58067 6.85109 8.714C6.46576 9.84733 6.27309 11.3093 6.27309 13.1C6.27309 14.8907 6.46576 16.3527 6.85109 17.486C7.25909 18.6193 7.80309 19.4467 8.48309 19.968C9.18576 20.4893 9.99043 20.75 10.8971 20.75ZM27.3125 25V3.24L29.6925 5.62H22.5525V1.2H32.8205V25H27.3125Z" fill="#F6F6F6"/>
</svg>
