<svg width="42" height="26" viewBox="0 0 42 26" fill="none" xmlns="http://www.w3.org/2000/svg">
<path d="M10.527 25.408C8.57764 25.408 6.83231 24.932 5.29098 23.98C3.74964 23.0053 2.53698 21.6 1.65298 19.764C0.768977 17.928 0.326977 15.7067 0.326977 13.1C0.326977 10.4933 0.768977 8.272 1.65298 6.436C2.53698 4.6 3.74964 3.206 5.29098 2.254C6.83231 1.27933 8.57764 0.792 10.527 0.792C12.499 0.792 14.2443 1.27933 15.763 2.254C17.3043 3.206 18.517 4.6 19.401 6.436C20.285 8.272 20.727 10.4933 20.727 13.1C20.727 15.7067 20.285 17.928 19.401 19.764C18.517 21.6 17.3043 23.0053 15.763 23.98C14.2443 24.932 12.499 25.408 10.527 25.408ZM10.527 20.75C11.4563 20.75 12.261 20.4893 12.941 19.968C13.6436 19.4467 14.1876 18.6193 14.573 17.486C14.981 16.3527 15.185 14.8907 15.185 13.1C15.185 11.3093 14.981 9.84733 14.573 8.714C14.1876 7.58067 13.6436 6.75333 12.941 6.232C12.261 5.71067 11.4563 5.45 10.527 5.45C9.62031 5.45 8.81564 5.71067 8.11298 6.232C7.43298 6.75333 6.88898 7.58067 6.48098 8.714C6.09564 9.84733 5.90298 11.3093 5.90298 13.1C5.90298 14.8907 6.09564 16.3527 6.48098 17.486C6.88898 18.6193 7.43298 19.4467 8.11298 19.968C8.81564 20.4893 9.62031 20.75 10.527 20.75ZM23.0663 25V21.43L32.2463 12.76C32.9717 12.1027 33.5043 11.5133 33.8443 10.992C34.1843 10.4707 34.411 9.99467 34.5243 9.564C34.6603 9.13333 34.7283 8.73667 34.7283 8.374C34.7283 7.422 34.3997 6.69667 33.7423 6.198C33.1077 5.67667 32.167 5.416 30.9203 5.416C29.923 5.416 28.9937 5.60867 28.1323 5.994C27.2937 6.37933 26.5797 6.98 25.9903 7.796L21.9783 5.212C22.885 3.852 24.1543 2.77533 25.7863 1.982C27.4183 1.18867 29.2997 0.792 31.4303 0.792C33.1983 0.792 34.7397 1.08667 36.0543 1.676C37.3917 2.24267 38.423 3.04733 39.1483 4.09C39.8963 5.13267 40.2703 6.37933 40.2703 7.83C40.2703 8.60067 40.1683 9.37133 39.9643 10.142C39.783 10.89 39.3977 11.6833 38.8083 12.522C38.2417 13.3607 37.403 14.3013 36.2923 15.344L28.6763 22.518L27.6223 20.512H41.0523V25H23.0663Z" fill="#F6F6F6"/>
</svg>
