<svg width="41" height="26" viewBox="0 0 41 26" fill="none" xmlns="http://www.w3.org/2000/svg">
<path d="M10.5934 25.408C8.64405 25.408 6.89872 24.932 5.35738 23.98C3.81605 23.0053 2.60338 21.6 1.71938 19.764C0.835383 17.928 0.393383 15.7067 0.393383 13.1C0.393383 10.4933 0.835383 8.272 1.71938 6.436C2.60338 4.6 3.81605 3.206 5.35738 2.254C6.89872 1.27933 8.64405 0.792 10.5934 0.792C12.5654 0.792 14.3107 1.27933 15.8294 2.254C17.3707 3.206 18.5834 4.6 19.4674 6.436C20.3514 8.272 20.7934 10.4933 20.7934 13.1C20.7934 15.7067 20.3514 17.928 19.4674 19.764C18.5834 21.6 17.3707 23.0053 15.8294 23.98C14.3107 24.932 12.5654 25.408 10.5934 25.408ZM10.5934 20.75C11.5227 20.75 12.3274 20.4893 13.0074 19.968C13.7101 19.4467 14.2541 18.6193 14.6394 17.486C15.0474 16.3527 15.2514 14.8907 15.2514 13.1C15.2514 11.3093 15.0474 9.84733 14.6394 8.714C14.2541 7.58067 13.7101 6.75333 13.0074 6.232C12.3274 5.71067 11.5227 5.45 10.5934 5.45C9.68672 5.45 8.88205 5.71067 8.17938 6.232C7.49938 6.75333 6.95538 7.58067 6.54738 8.714C6.16205 9.84733 5.96938 11.3093 5.96938 13.1C5.96938 14.8907 6.16205 16.3527 6.54738 17.486C6.95538 18.6193 7.49938 19.4467 8.17938 19.968C8.88205 20.4893 9.68672 20.75 10.5934 20.75ZM30.8555 25.408C29.2009 25.408 27.5575 25.1927 25.9255 24.762C24.2935 24.3087 22.9109 23.674 21.7775 22.858L23.9195 18.642C24.8262 19.2993 25.8802 19.8207 27.0815 20.206C28.2829 20.5913 29.4955 20.784 30.7195 20.784C32.1022 20.784 33.1902 20.512 33.9835 19.968C34.7769 19.424 35.1735 18.676 35.1735 17.724C35.1735 16.8173 34.8222 16.1033 34.1195 15.582C33.4169 15.0607 32.2835 14.8 30.7195 14.8H28.2035V11.162L34.8335 3.648L35.4455 5.62H22.9675V1.2H39.6275V4.77L33.0315 12.284L30.2435 10.686H31.8415C34.7655 10.686 36.9755 11.3433 38.4715 12.658C39.9675 13.9727 40.7155 15.6613 40.7155 17.724C40.7155 19.0613 40.3642 20.3193 39.6615 21.498C38.9589 22.654 37.8822 23.5947 36.4315 24.32C34.9809 25.0453 33.1222 25.408 30.8555 25.408Z" fill="#F6F6F6"/>
</svg>
