<svg width="27" height="25" viewBox="0 0 27 25" fill="none" xmlns="http://www.w3.org/2000/svg">
<g clip-path="url(#clip0_41_297)">
<path fill-rule="evenodd" clip-rule="evenodd" d="M13.0629 15.6285C12.6521 15.6285 12.2453 15.5476 11.8658 15.3904C11.4863 15.2332 11.1414 15.0028 10.851 14.7123C10.5605 14.4218 10.3301 14.077 10.1729 13.6975C10.0157 13.318 9.93477 12.9112 9.93477 12.5004C9.93477 12.0896 10.0157 11.6828 10.1729 11.3033C10.3301 10.9238 10.5605 10.579 10.851 10.2885C11.1414 9.998 11.4863 9.76758 11.8658 9.61038C12.2453 9.45318 12.6521 9.37227 13.0629 9.37227C13.8925 9.37227 14.6882 9.70184 15.2748 10.2885C15.8614 10.8751 16.191 11.6708 16.191 12.5004C16.191 13.33 15.8614 14.1257 15.2748 14.7123C14.6882 15.299 13.8925 15.6285 13.0629 15.6285ZM13.0629 7.68164C11.7849 7.68164 10.5592 8.18933 9.65552 9.09302C8.75183 9.99671 8.24414 11.2224 8.24414 12.5004C8.24414 13.7784 8.75183 15.0041 9.65552 15.9078C10.5592 16.8115 11.7849 17.3192 13.0629 17.3192C14.3409 17.3192 15.5666 16.8115 16.4703 15.9078C17.374 15.0041 17.8816 13.7784 17.8816 12.5004C17.8816 11.2224 17.374 9.99671 16.4703 9.09302C15.5666 8.18933 14.3409 7.68164 13.0629 7.68164ZM19.2835 7.59414C19.2835 7.89624 19.1635 8.18597 18.9499 8.39958C18.7363 8.6132 18.4465 8.7332 18.1445 8.7332C17.8424 8.7332 17.5526 8.6132 17.339 8.39958C17.1254 8.18597 17.0054 7.89624 17.0054 7.59414C17.0054 7.29204 17.1254 7.00232 17.339 6.7887C17.5526 6.57509 17.8424 6.45508 18.1445 6.45508C18.4465 6.45508 18.7363 6.57509 18.9499 6.7887C19.1635 7.00232 19.2835 7.29204 19.2835 7.59414Z" fill="#FF734F"/>
<path d="M20.8302 1.67871H6.03613C4.24121 1.67871 2.78613 3.13379 2.78613 4.92871V19.2288C2.78613 21.0237 4.24121 22.4788 6.03613 22.4788H20.8302C22.6252 22.4788 24.0802 21.0237 24.0802 19.2288V4.92871C24.0802 3.13379 22.6252 1.67871 20.8302 1.67871Z" stroke="#FF734F" stroke-width="1.5"/>
</g>
<defs>
<clipPath id="clip0_41_297">
<rect width="26" height="25" fill="white" transform="translate(0.0625)"/>
</clipPath>
</defs>
</svg>
