<svg width="1156" height="100" viewBox="0 0 1156 100" fill="none" xmlns="http://www.w3.org/2000/svg">
<path d="M12 27H57.12V72.4576H12V27Z" fill="white"/>
<path d="M25.3896 38.3273C25.5772 38.2898 25.8022 38.2148 25.9897 38.2148C26.9649 38.1773 27.9401 38.2523 28.9152 38.2898C29.0653 38.2523 29.1403 38.4023 29.1778 38.5148C30.6405 41.5528 32.1033 44.6283 33.6035 47.6663C33.9411 48.3039 34.2036 48.9416 34.5787 49.5417C34.8787 49.0541 35.1413 48.529 35.4038 48.0039C37.0916 44.7409 38.6669 41.4778 40.3171 38.2148C41.4048 38.2523 42.4925 38.1398 43.5802 38.3273C43.3926 38.9649 43.0176 39.49 42.755 40.0901C40.5797 44.2533 38.3668 48.4165 36.1915 52.5797C36.1165 52.7297 36.0789 52.9172 36.0789 53.1047C36.0789 56.0677 36.0789 59.0682 36.0789 62.0312C35.0287 62.0312 33.9786 62.0312 32.9284 62.0312C32.9284 59.1433 32.9284 56.2178 32.9284 53.3298C32.9284 53.0297 32.9659 52.6922 32.7784 52.3921C30.753 48.604 28.7652 44.8159 26.7399 40.9902C26.2898 40.0901 25.8022 39.2274 25.3896 38.3273Z" fill="#292526"/>
<path d="M138.359 36.0015C138.771 36.039 138.846 36.5265 138.884 36.8266C138.996 38.3644 139.034 39.8646 139.034 41.4024C139.109 42.8651 139.109 44.2903 139.109 45.7531C139.934 45.1155 140.721 44.4404 141.697 44.0653C143.234 43.3902 145.11 43.3902 146.61 44.1778C148.223 45.003 149.348 46.5782 149.91 48.266C150.436 49.8788 150.586 51.6041 150.473 53.2918C150.323 55.2797 149.798 57.2675 148.635 58.8803C147.96 59.8179 147.06 60.6431 145.935 61.0556C144.134 61.6932 142.147 61.4682 140.534 60.4555C140.046 60.1555 139.596 59.7054 139.146 59.3303C138.959 59.9304 138.809 60.493 138.621 61.0931C137.758 61.0931 136.933 61.1682 136.071 61.0181C136.408 59.6679 136.408 58.2427 136.446 56.8549C136.521 51.9416 136.446 47.0283 136.408 42.1525C136.296 40.2397 136.446 38.3268 136.108 36.4515C136.896 36.2265 137.608 36.0015 138.359 36.0015ZM144.66 46.1282C143.909 45.9781 143.159 45.9781 142.409 46.0531C141.059 46.2407 139.971 47.1783 139.109 48.1535C139.071 48.491 139.109 48.7911 139.071 49.1287V56.93C139.034 57.1925 139.259 57.38 139.446 57.5301C140.759 58.8053 142.709 59.4054 144.51 58.9553C145.372 58.7302 146.122 58.1677 146.535 57.38C147.173 56.2923 147.398 55.0171 147.51 53.7794C147.585 52.8418 147.698 51.8666 147.585 50.9289C147.548 49.8413 147.323 48.6786 146.76 47.7409C146.31 46.9533 145.56 46.3157 144.66 46.1282ZM155.836 36.6766C156.362 36.489 156.962 36.5266 157.487 36.7516C157.974 37.0516 158.312 37.5017 158.537 38.0268C158.874 39.152 157.974 40.4272 156.812 40.5772C155.911 40.6897 154.936 40.1647 154.674 39.2645C154.299 38.2893 154.861 37.0891 155.836 36.6766ZM75.8355 38.7394C77.1107 37.8768 78.611 37.2017 80.1862 37.2017C81.799 37.1642 83.4493 37.2767 84.912 37.9893C85.5121 38.2518 86.1122 38.5519 86.6373 39.002C86.2622 39.6396 85.7747 40.2022 85.3246 40.7648C84.7245 40.4272 84.1619 40.0521 83.5243 39.8271C81.949 39.2645 80.1487 39.152 78.5735 39.7896C77.2607 40.3147 76.1731 41.3274 75.4979 42.5651C75.0479 43.4277 74.6353 44.3654 74.4478 45.3405C74.2977 46.2782 74.2227 47.2533 74.1852 48.2285C74.1477 49.5037 74.0727 50.8164 74.1477 52.0916C74.3728 53.8919 74.9729 55.6922 76.2106 57.0425C77.2607 58.2802 78.836 58.9928 80.4488 59.1428C81.2739 59.1803 82.1366 59.1803 82.9617 58.9928C83.9744 58.7678 84.837 58.2427 85.7747 57.8301C86.2998 58.3552 86.7873 58.9553 87.2374 59.5929C86.5623 59.968 85.8497 60.343 85.0996 60.6431C83.1492 61.4307 80.9364 61.4682 78.8735 61.2432C77.3733 60.9431 75.9855 60.1555 74.8228 59.1803C73.4726 58.0176 72.4974 56.4799 71.9349 54.7921C71.5223 53.6669 71.3348 52.4667 71.2222 51.304C71.1847 50.4039 71.0722 49.5412 71.1847 48.6411C71.2222 46.9533 71.4848 45.303 72.1599 43.7277C72.91 41.7774 74.1102 39.9396 75.8355 38.7394Z" fill="white"/>
<path d="M199.869 39.6391C200.731 39.3766 201.632 39.1515 202.532 39.0015C202.382 40.6518 202.269 42.3021 202.232 43.9898C203.619 44.0273 205.045 44.0273 206.432 44.0649C206.207 44.7025 205.945 45.3401 205.645 45.9402C204.445 45.9402 203.282 45.9402 202.082 45.9402C202.082 47.4779 202.082 49.0157 202.082 50.5534C202.082 51.7536 202.157 52.9913 202.119 54.1915C202.157 55.5793 202.082 56.967 202.232 58.3172C202.269 58.8798 202.794 59.2924 203.282 59.4424C204.145 59.6299 205.045 59.5549 205.87 59.3674C206.095 59.855 206.207 60.4176 206.17 60.9427C205.42 61.3552 204.52 61.4302 203.657 61.5053C202.457 61.5428 201.107 61.3552 200.244 60.4176C199.531 59.7425 199.606 58.6923 199.494 57.7921C199.419 55.8418 199.456 53.854 199.419 51.9037C199.419 49.9158 199.419 47.8905 199.419 45.9027C198.669 45.9027 197.918 45.9027 197.168 45.9027C197.131 45.2651 197.131 44.5899 197.168 43.9523C197.918 43.9523 198.631 43.9523 199.381 43.9523C199.644 42.5271 199.644 41.0643 199.869 39.6391ZM97.3266 43.5773C98.0392 43.6148 98.7518 43.5773 99.427 43.8023C101.002 44.3274 102.315 45.4151 103.14 46.8403C103.853 48.078 104.34 49.4657 104.378 50.891C104.453 52.8038 104.528 54.7916 103.928 56.6294C103.365 58.3547 102.165 59.8925 100.515 60.7551C98.9019 61.5803 96.9515 61.7678 95.2263 61.2802C93.651 60.8677 92.3008 59.8175 91.4006 58.4673C90.388 57.0045 90.0504 55.2417 90.0129 53.4789C89.9754 51.7911 89.9379 50.0658 90.5005 48.4531C91.0256 46.8778 92.0382 45.4151 93.4635 44.5149C94.1011 44.1024 94.8137 43.7648 95.5638 43.6148C96.1639 43.5398 96.764 43.5773 97.3266 43.5773ZM95.9764 45.7526C95.0762 45.9777 94.2136 46.5028 93.726 47.2904C93.0134 48.4531 92.9009 49.8408 92.8259 51.1535C92.7508 52.1287 92.8259 53.1039 92.9009 54.079C93.0509 55.2417 93.2759 56.4794 93.8385 57.5296C94.4386 58.6548 95.7138 59.2174 96.9515 59.2924C98.1142 59.3674 99.3895 59.0673 100.215 58.1672C100.89 57.4171 101.265 56.4794 101.415 55.4668C101.602 54.229 101.565 52.9913 101.527 51.7536C101.49 50.4784 101.377 49.1282 100.852 47.928C100.552 47.1779 99.9896 46.5403 99.2769 46.1652C98.3018 45.5651 97.0641 45.4901 95.9764 45.7526ZM109.066 44.1399C109.854 43.8773 110.641 43.6898 111.467 43.5398C111.804 44.2899 111.992 45.115 112.067 45.9402C112.629 45.6401 113.042 45.19 113.567 44.8525C114.73 43.9898 116.155 43.4647 117.618 43.5398C117.955 43.5773 118.255 43.6523 118.555 43.8023C119.043 44.0648 119.568 44.3274 119.98 44.7025C120.393 45.115 120.693 45.6401 120.993 46.1652C121.668 45.8651 122.156 45.3401 122.756 44.9275C123.769 44.2149 124.931 43.6523 126.207 43.5398C127.369 43.4272 128.532 43.8023 129.395 44.5899C129.77 44.965 130.182 45.3401 130.37 45.8276C130.557 46.3152 130.632 46.8403 130.67 47.3654C130.857 50.1034 130.745 52.8788 130.857 55.6168C130.857 57.4546 130.857 59.2549 130.857 61.0927C129.957 61.0927 129.057 61.1302 128.119 61.0927C128.119 58.3547 128.119 55.6168 128.119 52.8788C128.119 51.116 128.157 49.3532 128.007 47.5904C127.932 47.0278 127.632 46.5028 127.182 46.1652C126.657 45.8276 125.981 45.8652 125.381 45.9027C124.294 46.0152 123.431 46.6903 122.606 47.3279C122.231 47.6654 121.818 47.9655 121.443 48.3031C121.331 48.3781 121.368 48.5656 121.368 48.6781C121.368 52.8038 121.368 56.9295 121.368 61.0552C120.468 61.0552 119.568 61.0552 118.668 61.0552V51.4161C118.668 50.6284 118.668 49.8408 118.63 49.0907C118.593 48.3031 118.668 47.4404 118.293 46.7278C117.73 45.9402 116.642 45.7901 115.78 46.0152C114.43 46.3527 113.229 47.1779 112.217 48.1155C112.067 48.228 112.067 48.4156 112.067 48.6031C112.067 52.7663 112.067 56.9295 112.067 61.0927C111.279 61.1302 110.491 61.1302 109.704 61.0927C109.629 56.8545 109.666 52.5788 109.554 48.3031C109.516 47.3279 109.516 46.3527 109.404 45.4151C109.291 44.965 109.141 44.5524 109.066 44.1399ZM155.199 43.9898C156.062 43.8773 156.924 43.7273 157.787 43.5398C157.899 45.9402 157.862 48.3406 157.862 50.741C157.862 54.1915 157.862 57.6421 157.862 61.0927C156.962 61.1302 156.062 61.1302 155.161 61.0927C155.124 56.1419 155.161 51.2285 155.161 46.2777C155.199 45.5276 155.161 44.74 155.199 43.9898ZM189.967 43.6523C191.805 43.9898 193.38 45.6776 193.418 47.5904C193.53 50.4409 193.38 53.2914 193.418 56.1419V57.0045C193.418 57.5671 193.455 58.1297 193.605 58.6923C193.718 59.2549 194.243 59.5549 194.655 59.8925C194.28 60.4176 193.943 61.0177 193.455 61.4678C193.155 61.7303 192.78 61.4302 192.555 61.2802C191.917 60.7926 191.467 60.08 191.092 59.3674C190.492 59.705 190.08 60.1925 189.48 60.5301C188.504 61.1677 187.342 61.5428 186.142 61.5053C185.091 61.5428 184.004 61.3552 183.066 60.8677C181.528 60.0425 180.666 58.2422 180.703 56.5544C180.703 54.9042 181.528 53.2914 182.841 52.3162C184.416 51.116 186.442 50.741 188.354 50.5909C189.217 50.5159 190.117 50.5159 191.017 50.4784C191.055 49.6158 190.98 48.7531 190.867 47.8905C190.755 47.1779 190.417 46.4277 189.742 46.0527C188.954 45.6401 188.017 45.6026 187.117 45.7526C185.466 45.9402 183.929 46.6528 182.578 47.6279C182.203 47.1029 181.828 46.6153 181.528 46.0527C181.378 45.7901 181.603 45.5651 181.828 45.4526C183.629 44.4399 185.616 43.5773 187.717 43.6148H188.617C189.067 43.5773 189.517 43.5773 189.967 43.6523ZM188.842 52.2412C188.017 52.3162 187.154 52.3537 186.367 52.5788C185.391 52.8413 184.491 53.4789 183.966 54.3416C183.666 54.8291 183.666 55.4292 183.629 55.9918C183.629 56.5919 183.554 57.267 183.779 57.8296C184.004 58.4297 184.416 58.9923 185.016 59.2174C185.691 59.5174 186.479 59.5549 187.229 59.4799C188.129 59.3674 188.917 58.8798 189.592 58.3547C190.155 57.8671 190.717 57.267 190.755 56.4794C190.867 55.0917 190.83 53.704 190.867 52.3162C190.192 52.3162 189.517 52.1662 188.842 52.2412ZM218.247 43.6898C219.785 44.0649 221.172 45.0025 222.073 46.2777C222.823 47.3279 223.31 48.5281 223.535 49.8033C223.723 51.0035 223.798 52.2412 223.723 53.4414C223.685 55.4292 223.085 57.4171 221.885 58.9923C220.91 60.2676 219.41 61.0177 217.872 61.3177C215.997 61.6553 213.971 61.3177 212.396 60.1925C211.008 59.2174 210.146 57.6421 209.658 56.0669C209.395 55.2417 209.358 54.4166 209.283 53.5539C209.245 52.1287 209.245 50.7035 209.508 49.3157C209.883 47.7405 210.671 46.2027 211.871 45.0775C212.771 44.2524 213.896 43.7273 215.096 43.5773C216.147 43.4647 217.197 43.5023 218.247 43.6898ZM215.284 45.7151C214.009 45.8652 212.996 46.8778 212.583 48.0405C212.058 49.2782 212.133 50.6284 212.096 51.9412C212.133 53.1789 212.133 54.4166 212.358 55.6543C212.508 56.4794 212.771 57.3046 213.334 57.9422C213.859 58.5798 214.646 58.9923 215.434 59.1424C215.734 59.2174 216.072 59.2549 216.372 59.2549H216.672L216.972 59.2174C217.609 59.1424 218.209 58.9548 218.772 58.6548C219.447 58.2797 219.935 57.5671 220.197 56.8545C220.535 55.9918 220.572 55.0542 220.647 54.154C220.685 53.0664 220.722 51.9787 220.647 50.891C220.572 49.7658 220.422 48.6031 219.897 47.5904C219.41 46.8403 218.734 46.2027 217.909 45.8276C217.122 45.6026 216.184 45.6026 215.284 45.7151ZM228.336 44.1774C229.161 43.9523 229.949 43.6898 230.774 43.5023C231.224 44.3274 231.299 45.3026 231.337 46.2027C231.749 45.9027 232.087 45.4901 232.462 45.115C233.624 43.9523 235.35 43.2397 237 43.5398V43.7648C236.625 44.5524 236.4 45.4151 236.062 46.2402C236.025 46.3902 235.8 46.3527 235.687 46.3527C234.975 46.3527 234.187 46.3527 233.549 46.7278C232.912 47.1029 232.349 47.5904 231.899 48.1905C231.449 48.7531 231.524 49.5408 231.524 50.2159C231.487 51.191 231.449 52.1662 231.487 53.1414C231.487 55.7668 231.487 58.4297 231.487 61.0552C230.586 61.0927 229.686 61.0927 228.786 61.0552C228.786 58.1297 228.786 55.1667 228.786 52.2412C228.786 50.2534 228.786 48.228 228.711 46.2402C228.636 45.5651 228.411 44.89 228.336 44.1774ZM163.188 44.2149C163.975 43.9523 164.8 43.6523 165.626 43.6523C165.926 44.4399 166.113 45.2651 166.226 46.0902C166.938 45.6401 167.538 45.04 168.289 44.6274C169.714 43.8023 171.439 43.2022 173.052 43.8023C173.989 44.1399 174.927 44.665 175.49 45.5276C175.94 46.1277 176.052 46.9528 176.127 47.703C176.277 50.3659 176.24 53.0288 176.24 55.7293C176.24 57.5296 176.277 59.2924 176.277 61.0927C175.377 61.1302 174.477 61.1302 173.577 61.0927C173.577 58.1672 173.502 55.2042 173.502 52.2787C173.464 50.6284 173.539 49.0157 173.352 47.3654C173.089 46.5778 172.339 45.9402 171.514 45.9027C170.914 45.8652 170.276 45.8652 169.676 46.0902C168.401 46.5778 167.238 47.3654 166.188 48.228C166.151 52.5038 166.188 56.817 166.188 61.0927C165.401 61.0927 164.613 61.1302 163.825 61.0927C163.825 58.6548 163.75 56.2169 163.75 53.779C163.713 51.2661 163.75 48.7906 163.6 46.2777C163.563 45.5651 163.338 44.89 163.188 44.2149Z" fill="white"/>
<line x1="276.5" y1="20" x2="276.5" y2="80" stroke="#FF734F"/>
<path d="M388.81 37C385.995 37 383.82 38.0247 382.157 39.6881C379.726 42.1191 379.723 45.189 379.723 49.5392C379.723 53.7614 379.598 56.8351 382.157 59.3941C383.948 61.1854 385.995 62.0783 388.81 62.0783C389.578 62.0783 390.216 61.9516 390.856 61.8236H399.171L396.741 57.5995C397.893 55.4244 397.893 52.8658 397.893 49.5392C397.893 45.3169 397.891 42.247 395.46 39.6881C393.797 37.8968 391.625 37 388.81 37ZM439.222 37C436.407 37 434.231 37.8968 432.568 39.6881C430.009 42.247 430.135 45.3169 430.135 49.5392C430.135 53.8894 430.137 56.9631 432.568 59.3941C434.231 61.0574 436.407 62.0783 439.222 62.0783C442.037 62.0783 444.208 61.1854 445.872 59.3941C448.303 56.8351 448.305 53.7614 448.305 49.5392C448.305 45.189 448.302 42.1191 445.872 39.6881C444.08 38.0247 442.037 37 439.222 37ZM341.467 37.1293C336.093 37.1293 332.897 40.2007 332.897 44.5509C332.897 46.598 333.536 48.2622 334.688 49.4137C335.712 50.4373 337.374 51.2033 339.422 51.4592L342.364 51.8432C343.516 52.0991 344.027 52.2287 344.539 52.7405C345.051 53.2523 345.307 53.8904 345.307 54.786C345.307 56.8332 343.772 57.8581 340.958 57.8581C338.782 57.8581 336.607 57.3441 335.072 55.8088L332 58.8808C334.431 61.3118 337.247 62.0783 340.958 62.0783C346.075 62.0783 350.17 59.3908 350.17 54.6567C350.17 52.4816 349.529 50.6932 348.25 49.4137C347.226 48.3901 345.819 47.7496 343.516 47.4937L340.574 47.1097C339.55 46.8538 338.781 46.5987 338.27 46.0869C337.758 45.5751 337.502 44.9359 337.502 44.2961C337.502 42.6328 338.783 41.2241 341.342 41.2241C342.877 41.2241 344.795 41.3502 346.33 42.8856L349.402 39.9428C347.355 37.8956 344.794 37.1293 341.467 37.1293ZM357.078 37.2585V61.8236H373.328V57.5995H361.941V51.5885H371.663V47.2389H361.941V41.4788H373.328V37.2585H357.078ZM405.056 37.2585V53.3792C405.056 58.6251 409.153 62.0783 414.143 62.0783C419.133 62.0783 423.097 58.6251 423.097 53.3792V37.2585H418.364V53.25C418.364 56.0648 416.702 57.7288 414.143 57.7288C411.584 57.7288 409.919 56.0648 409.919 53.25V37.2585H405.056ZM455.342 37.2585V61.8236H460.076V37.2585H455.342ZM475.045 37.2585L466.087 61.8236H471.079L472.615 57.4741H481.314L482.721 61.8236H487.713L478.755 37.2585H475.045ZM388.681 41.3534C389.96 41.3534 391.113 41.8632 391.753 42.6308C392.649 43.6544 392.901 44.8051 392.901 49.5392C392.901 54.2732 392.649 55.4277 391.753 56.4513C391.113 57.219 389.96 57.7288 388.681 57.7288C387.402 57.7288 386.249 57.219 385.609 56.4513C384.713 55.4277 384.457 54.2732 384.457 49.5392C384.457 44.8051 384.713 43.6544 385.609 42.6308C386.249 41.8632 387.402 41.3534 388.681 41.3534ZM439.222 41.3534C440.501 41.3534 441.65 41.8632 442.29 42.6308C443.186 43.6544 443.442 44.8051 443.442 49.5392C443.442 54.2732 443.186 55.4277 442.29 56.4513C441.65 57.219 440.501 57.7288 439.222 57.7288C437.942 57.7288 436.789 57.219 436.15 56.4513C435.254 55.4277 434.998 54.2732 434.998 49.5392C434.998 44.8051 435.254 43.6544 436.15 42.6308C436.789 41.8632 437.942 41.3534 439.222 41.3534ZM476.965 44.4216L480.037 53.3792H473.893L476.965 44.4216Z" fill="white"/>
<path d="M497.435 37.2583V59.6486L500.507 56.5766V37.2583H497.435ZM503.579 37.2583V53.5083L506.647 50.4363V37.2583H503.579ZM509.719 37.2583V47.3642L512.791 44.2959V37.2583H509.719ZM515.86 37.2583V43.3987H522V37.2583H515.86ZM514.966 46.4707L511.894 49.539H522V46.4707H514.966ZM508.822 52.611L505.754 55.6831H522V52.611H508.822ZM502.682 58.7514L499.61 61.8234H522V58.7514H502.682Z" fill="white"/>
<line x1="578.5" y1="20" x2="578.5" y2="80" stroke="#FF734F"/>
<path d="M768.14 65.0613C767.179 63.9494 766.448 62.6589 765.987 61.2637L765.863 60.9128L765.738 60.4839L765.66 60.2188L765.535 59.7275L765.473 59.439C765.41 59.1661 765.356 58.8775 765.309 58.589C765.3 58.4842 765.284 58.3801 765.262 58.2771L765.2 57.7702C765.212 57.6588 765.212 57.5464 765.2 57.4349L765.161 57.006L786.995 51.7425C786.867 50.612 786.531 49.515 786.005 48.5063C785.195 46.7428 783.878 45.2605 782.223 44.2487C780.389 43.0888 778.328 42.3338 776.179 42.0341L775.813 41.9795C774.517 41.8363 773.21 41.8363 771.914 41.9795C768.476 42.3513 765.248 43.8164 762.704 46.1592C760.193 48.4443 758.514 51.5007 757.932 54.846V54.9786C757.893 55.1969 757.862 55.4075 757.839 55.6492C757.815 55.8909 757.839 55.9221 757.792 56.0781C757.802 56.1974 757.802 56.3174 757.792 56.4368C757.807 56.6445 757.807 56.853 757.792 57.0606V58.0666C757.843 59.8723 758.223 61.6535 758.915 63.3223C760.148 66.1826 762.185 68.6229 764.78 70.3464C767.374 72.07 770.413 73.0026 773.528 73.0307C776.162 73.0839 778.77 72.5008 781.131 71.3308C783.466 70.1777 785.48 68.4661 786.995 66.3479L786.621 65.4044C785.077 68.352 774.425 72.017 768.14 65.0613ZM778.074 52.109L765.091 55.2281C765.091 54.8382 765.091 54.4483 765.145 54.0818V53.9649C765.139 53.8402 765.139 53.7153 765.145 53.5906L765.208 53.0837C765.325 52.2724 765.508 51.4719 765.753 50.6898C766.194 49.2385 766.868 47.8689 767.75 46.6348C768.554 45.4976 769.587 44.5413 770.783 43.8276C771.928 43.1432 773.239 42.7871 774.573 42.7983C776.434 42.7983 777.796 43.3181 778.659 44.3579C778.973 44.7202 779.236 45.1243 779.439 45.5587C780.304 47.7655 780.242 51.4383 778.074 52.109Z" fill="white"/>
<path d="M729.174 65.3809C727.614 68.3597 716.978 72.0169 710.693 65.069C709.662 63.8679 708.892 62.4658 708.431 60.9517C707.889 59.2346 707.626 57.4417 707.651 55.6413C707.64 53.9603 707.887 52.2876 708.384 50.6819C708.825 49.2306 709.499 47.861 710.381 46.6269C711.171 45.4989 712.185 44.5459 713.359 43.8275C714.504 43.1435 715.816 42.7874 717.149 42.7982C719.01 42.7982 720.372 43.318 721.235 44.3578C722.125 45.482 722.584 46.8866 722.53 48.3191C722.549 49.063 722.438 49.8045 722.202 50.5103L728.83 48.9507C726.421 42.7124 718.436 41.8468 716.962 41.8468C704.314 41.6441 697.374 53.5437 701.46 63.2365C702.694 66.0985 704.733 68.5407 707.328 70.2667C709.924 71.9928 712.964 72.9286 716.081 72.9604C718.715 73.0137 721.323 72.4305 723.684 71.2605C726.019 70.1077 728.033 68.3961 729.548 66.2776L729.174 65.3809Z" fill="white"/>
<path d="M757.932 65.3813C756.373 68.3601 745.736 72.0173 739.451 65.0694C738.431 63.8763 737.669 62.4851 737.213 60.9833C736.671 59.2662 736.408 57.4733 736.433 55.6729C736.422 53.9919 736.669 52.3192 737.166 50.7135C737.604 49.2627 738.276 47.8931 739.155 46.6586C739.943 45.5205 740.957 44.557 742.134 43.8279C743.279 43.1435 744.59 42.7874 745.923 42.7986C747.779 42.7986 749.141 43.3185 750.01 44.3582C750.907 45.4792 751.375 46.8841 751.327 48.3195C751.347 49.0641 751.234 49.8062 750.992 50.5107L757.581 48.9511C755.187 42.7128 747.202 41.8551 745.744 41.8551C733.096 41.6523 726.156 53.5519 730.242 63.2447C731.468 66.1139 733.503 68.5646 736.097 70.298C738.692 72.0315 741.735 72.9729 744.855 73.0076C747.495 73.0634 750.108 72.4802 752.474 71.3077C754.809 70.1546 756.823 68.4431 758.338 66.3248L757.932 65.3813Z" fill="white"/>
<path d="M796.555 66.7693V27L787.198 29.277H787.135V30.1581C787.463 30.1581 790.293 30.9379 790.293 32.8874V66.6289C790.293 70.8865 787.283 71.5026 785.248 71.6351V72.3447L801.6 72.3448V71.6351C799.573 71.5026 796.625 70.8787 796.555 66.7693Z" fill="white"/>
<path d="M683.447 27L674.183 29.2692H674.113V29.9554C674.44 29.9554 677.193 30.9301 676.452 32.6847C672.935 40.467 661.527 66.4417 660.926 67.6114C658.954 71.5104 656.154 71.5104 655 71.6351V72.3447H669.504V71.6195C669.504 71.6195 663.999 71.6819 663.999 68.8045C663.999 67.0578 666.845 60.1878 667.617 58.3085L686.511 53.7C686.558 53.817 691.642 66.1298 691.642 68.7265C691.642 71.5338 687.127 71.6195 686.964 71.6195V72.3292H705.889V71.6195C704.546 71.6424 703.225 71.2703 702.091 70.5495C700.957 69.8286 700.06 68.7908 699.51 67.5646C698.941 66.4417 683.447 27 683.447 27ZM685.856 52.1092L668.412 56.3669C668.506 56.1407 677.996 33.9011 678.261 33.3397C678.659 34.2676 685.849 52.1092 685.849 52.1092H685.856Z" fill="white"/>
<line x1="880.5" y1="20" x2="880.5" y2="80" stroke="#FF734F"/>
<path d="M1040.37 70.8533C1039.59 70.7503 1038.81 70.672 1038.04 70.5443C1031.42 69.4561 1026.22 64.0332 1025.41 57.4235C1024.89 53.1379 1026.13 49.3405 1028.65 45.9304C1032.76 40.3708 1036.91 34.8448 1041.05 29.3143C1041.17 29.1643 1041.4 29.0143 1041.57 29.0121C1044.06 28.9941 1046.55 29.0009 1049.05 29.0031C1049.08 29.0031 1049.1 29.0255 1049.19 29.0636C1046.32 32.7647 1043.46 36.4524 1040.56 40.1962C1040.74 40.2297 1040.84 40.27 1040.95 40.2656C1044.93 40.0887 1048.4 41.3985 1051.34 44.0294C1054.96 47.2716 1056.72 51.378 1056.5 56.23C1056.2 62.8868 1051.53 68.5404 1045.04 70.2264C1043.99 70.4995 1042.89 70.5869 1041.81 70.7638C1041.67 70.7884 1041.53 70.8265 1041.38 70.8578C1041.05 70.8533 1040.71 70.8533 1040.37 70.8533ZM1040.82 64.7698C1041.42 64.6982 1042.02 64.678 1042.61 64.5504C1046.52 63.6995 1049.21 60.7283 1049.7 56.7473C1050.39 51.2369 1046.43 45.9886 1040.38 46.3133C1038.11 46.4342 1036.15 47.276 1034.6 48.9397C1032.33 51.3892 1031.7 54.3201 1032.29 57.5466C1033.05 61.7381 1036.61 64.7183 1040.82 64.7698Z" fill="white"/>
<path d="M1004.37 41.815C1004.37 41.0895 1004.37 40.476 1004.37 39.8245C1006.59 39.8245 1008.75 39.8245 1010.94 39.8245C1010.94 49.8845 1010.94 59.9312 1010.94 70.007C1008.77 70.007 1006.62 70.007 1004.4 70.007C1004.4 69.2882 1004.4 68.5762 1004.4 67.741C999.713 70.8511 994.792 71.6258 989.568 69.7942C986.295 68.6456 983.693 66.5588 981.74 63.6928C977.905 58.0616 978.113 50.4757 982.255 45.1154C984.893 41.703 988.352 39.6297 992.627 38.9848C996.876 38.3422 1000.76 39.352 1004.37 41.815ZM994.958 64.1361C1000.14 64.1473 1004.36 59.9737 1004.39 54.8261C1004.41 49.6606 1000.18 45.4109 995.005 45.4064C989.868 45.4042 985.623 49.6114 985.614 54.7142C985.605 59.9536 989.738 64.1227 994.958 64.1361Z" fill="white"/>
<path d="M1067.12 63.966C1072.14 63.966 1077.03 63.966 1081.97 63.966C1081.97 66.0036 1081.97 67.9896 1081.97 70.0003C1074.33 70.0003 1066.71 70.0003 1059.04 70.0003C1059.03 69.8279 1059.01 69.6644 1059.01 69.501C1059.01 67.8015 1059 66.1043 1059.02 64.4049C1059.03 64.1608 1059.13 63.872 1059.28 63.6839C1063.99 57.9765 1068.72 52.2804 1073.44 46.5797C1073.56 46.432 1073.68 46.2752 1073.87 46.0289C1068.86 46.0289 1063.97 46.0289 1059.05 46.0289C1059.05 43.9981 1059.05 42.0232 1059.05 40.0215C1066.69 40.0215 1074.31 40.0215 1081.96 40.0215C1081.98 40.1827 1082 40.3283 1082 40.4738C1082 42.1889 1082.01 43.9041 1081.98 45.6192C1081.98 45.861 1081.88 46.1498 1081.73 46.3357C1077 52.0497 1072.25 57.7526 1067.51 63.4577C1067.4 63.5943 1067.3 63.7354 1067.12 63.966Z" fill="white"/>
<path d="M1022.16 70C1019.95 70 1017.77 70 1015.52 70C1015.52 69.7515 1015.52 69.5209 1015.52 69.2902C1015.52 58.1084 1015.52 46.9265 1015.52 35.7447C1015.52 35.0215 1015.52 35.0215 1014.79 35.0215C1013.61 35.0215 1012.43 35.0215 1011.21 35.0215C1011.21 33.0175 1011.21 31.0449 1011.21 29.0342C1014.84 29.0342 1018.48 29.0342 1022.16 29.0342C1022.16 42.6902 1022.16 56.3306 1022.16 70Z" fill="white"/>
</svg>
