<svg width="341" height="70" viewBox="0 0 341 70" fill="none" xmlns="http://www.w3.org/2000/svg">
<path d="M337.5 35C337.5 28.6487 332.351 23.5 326 23.5H106.5V69.5H326C332.351 69.5 337.5 64.3513 337.5 58V35Z" stroke="#FF734F"/>
<path d="M0 35C0 28.3726 5.37258 23 12 23H87.1875V70H12C5.37258 70 0 64.6274 0 58V35Z" fill="black"/>
<path d="M27.0815 44.2646C27.0446 43.8922 26.8861 43.6029 26.606 43.3967C26.3259 43.1905 25.9458 43.0874 25.4657 43.0874C25.1395 43.0874 24.8641 43.1335 24.6394 43.2259C24.4147 43.3151 24.2424 43.4397 24.1223 43.5998C24.0054 43.7598 23.9469 43.9414 23.9469 44.1445C23.9408 44.3138 23.9761 44.4615 24.0531 44.5877C24.1331 44.7139 24.2424 44.8232 24.3809 44.9155C24.5194 45.0047 24.6794 45.0832 24.861 45.1509C25.0426 45.2156 25.2364 45.271 25.4426 45.3171L26.2921 45.5202C26.7045 45.6126 27.083 45.7357 27.4277 45.8896C27.7724 46.0434 28.071 46.2327 28.3233 46.4574C28.5757 46.6821 28.7711 46.9467 28.9096 47.2514C29.0512 47.5561 29.1235 47.9054 29.1266 48.2994C29.1235 48.878 28.9758 49.3796 28.6834 49.8043C28.3941 50.226 27.9756 50.5537 27.4277 50.7876C26.883 51.0185 26.2259 51.1339 25.4565 51.1339C24.6932 51.1339 24.0285 51.0169 23.4622 50.783C22.899 50.5491 22.4589 50.2029 22.1419 49.7443C21.8279 49.2827 21.6633 48.7118 21.6479 48.0316H23.5822C23.6038 48.3486 23.6945 48.6133 23.8546 48.8256C24.0177 49.0349 24.2347 49.1934 24.5055 49.3011C24.7794 49.4058 25.0887 49.4581 25.4334 49.4581C25.772 49.4581 26.0659 49.4089 26.3152 49.3104C26.5675 49.2119 26.763 49.0749 26.9015 48.8995C27.04 48.7241 27.1092 48.5225 27.1092 48.2947C27.1092 48.0824 27.0461 47.9039 26.9199 47.7592C26.7968 47.6146 26.6152 47.4915 26.3752 47.3899C26.1382 47.2884 25.8474 47.196 25.5027 47.1129L24.4732 46.8544C23.6761 46.6605 23.0467 46.3574 22.585 45.945C22.1234 45.5326 21.8941 44.977 21.8972 44.2784C21.8941 43.706 22.0465 43.2058 22.3542 42.7781C22.6651 42.3503 23.0913 42.0163 23.633 41.7763C24.1747 41.5362 24.7902 41.4162 25.4796 41.4162C26.1813 41.4162 26.7937 41.5362 27.3169 41.7763C27.8432 42.0163 28.2525 42.3503 28.5449 42.7781C28.8373 43.2058 28.9881 43.7013 28.9973 44.2646H27.0815ZM32.4701 41.5455V51H30.4711V41.5455H32.4701ZM34.1147 51V41.5455H36.1136V49.3519H40.1669V51H34.1147ZM42.1831 41.5455L44.4683 48.7287H44.556L46.8458 41.5455H49.0617L45.8025 51H43.2265L39.9626 41.5455H42.1831ZM50.1997 51V41.5455H56.5704V43.1935H52.1986V45.4464H56.2426V47.0945H52.1986V49.3519H56.5889V51H50.1997ZM58.1596 51V41.5455H61.8897C62.6038 41.5455 63.2131 41.6732 63.7179 41.9286C64.2257 42.181 64.6119 42.5395 64.8766 43.0043C65.1444 43.4659 65.2782 44.0091 65.2782 44.6339C65.2782 45.2617 65.1428 45.8018 64.872 46.2543C64.6011 46.7036 64.2087 47.0483 63.6948 47.2884C63.1839 47.5284 62.5653 47.6484 61.839 47.6484H59.3414V46.0419H61.5158C61.8974 46.0419 62.2144 45.9896 62.4668 45.8849C62.7192 45.7803 62.9069 45.6233 63.03 45.4141C63.1562 45.2048 63.2193 44.9447 63.2193 44.6339C63.2193 44.32 63.1562 44.0553 63.03 43.8398C62.9069 43.6244 62.7176 43.4613 62.4622 43.3505C62.2098 43.2366 61.8913 43.1797 61.5066 43.1797H60.1586V51H58.1596ZM63.2654 46.6974L65.6152 51H63.4086L61.1096 46.6974H63.2654Z" fill="white"/>
<path d="M135.959 44.1094C135.889 43.8674 135.791 43.6536 135.665 43.468C135.539 43.2791 135.385 43.12 135.203 42.9908C135.024 42.8582 134.818 42.7571 134.586 42.6875C134.358 42.6179 134.104 42.5831 133.826 42.5831C133.305 42.5831 132.848 42.7124 132.454 42.9709C132.063 43.2294 131.758 43.6056 131.539 44.0994C131.32 44.59 131.211 45.1899 131.211 45.8991C131.211 46.6084 131.318 47.2116 131.534 47.7088C131.749 48.206 132.054 48.5855 132.449 48.8473C132.843 49.1058 133.309 49.2351 133.846 49.2351C134.333 49.2351 134.749 49.1489 135.094 48.9766C135.442 48.8009 135.707 48.554 135.889 48.2358C136.075 47.9176 136.167 47.5414 136.167 47.1072L136.605 47.1719H133.98V45.5511H138.241V46.8338C138.241 47.7287 138.052 48.4976 137.674 49.1406C137.296 49.7803 136.776 50.2741 136.113 50.6222C135.45 50.9669 134.691 51.1392 133.836 51.1392C132.881 51.1392 132.043 50.9287 131.32 50.5078C130.598 50.0836 130.034 49.482 129.63 48.7031C129.229 47.9209 129.028 46.9929 129.028 45.919C129.028 45.0937 129.148 44.358 129.386 43.7116C129.628 43.062 129.966 42.5118 130.4 42.0611C130.835 41.6103 131.34 41.2673 131.917 41.032C132.493 40.7966 133.118 40.679 133.791 40.679C134.368 40.679 134.905 40.7635 135.402 40.9325C135.899 41.0982 136.34 41.3336 136.724 41.6385C137.112 41.9434 137.429 42.3063 137.674 42.7273C137.919 43.1449 138.077 43.6056 138.146 44.1094H135.959ZM149.214 45.9091C149.214 47.0194 149.004 47.964 148.583 48.7429C148.165 49.5218 147.595 50.1167 146.873 50.5277C146.153 50.9354 145.345 51.1392 144.446 51.1392C143.542 51.1392 142.73 50.9337 142.01 50.5227C141.291 50.1117 140.723 49.5168 140.305 48.7379C139.887 47.959 139.679 47.0161 139.679 45.9091C139.679 44.7988 139.887 43.8542 140.305 43.0753C140.723 42.2964 141.291 41.7031 142.01 41.2955C142.73 40.8845 143.542 40.679 144.446 40.679C145.345 40.679 146.153 40.8845 146.873 41.2955C147.595 41.7031 148.165 42.2964 148.583 43.0753C149.004 43.8542 149.214 44.7988 149.214 45.9091ZM147.032 45.9091C147.032 45.1899 146.924 44.5833 146.708 44.0895C146.496 43.5956 146.196 43.2211 145.809 42.9659C145.421 42.7107 144.967 42.5831 144.446 42.5831C143.926 42.5831 143.472 42.7107 143.084 42.9659C142.696 43.2211 142.395 43.5956 142.179 44.0895C141.967 44.5833 141.861 45.1899 141.861 45.9091C141.861 46.6283 141.967 47.2348 142.179 47.7287C142.395 48.2225 142.696 48.5971 143.084 48.8523C143.472 49.1075 143.926 49.2351 144.446 49.2351C144.967 49.2351 145.421 49.1075 145.809 48.8523C146.196 48.5971 146.496 48.2225 146.708 47.7287C146.924 47.2348 147.032 46.6283 147.032 45.9091ZM150.809 51V40.8182H152.961V49.2251H157.327V51H150.809ZM162.362 51H158.752V40.8182H162.391C163.415 40.8182 164.297 41.022 165.036 41.4297C165.775 41.834 166.344 42.4157 166.741 43.1747C167.143 43.9337 167.343 44.8419 167.343 45.8991C167.343 46.9598 167.143 47.8712 166.741 48.6335C166.344 49.3958 165.772 49.9808 165.026 50.3885C164.284 50.7962 163.396 51 162.362 51ZM160.905 49.1555H162.272C162.908 49.1555 163.444 49.0429 163.878 48.8175C164.315 48.5888 164.643 48.2358 164.862 47.7585C165.084 47.2779 165.195 46.6581 165.195 45.8991C165.195 45.1468 165.084 44.532 164.862 44.0547C164.643 43.5774 164.317 43.2261 163.883 43.0007C163.449 42.7753 162.913 42.6626 162.277 42.6626H160.905V49.1555Z" fill="black"/>
<path d="M146.568 3.78267C146.533 3.43892 146.387 3.17187 146.129 2.98153C145.87 2.79119 145.519 2.69602 145.076 2.69602C144.775 2.69602 144.521 2.73864 144.313 2.82386C144.106 2.90625 143.947 3.02131 143.836 3.16903C143.728 3.31676 143.674 3.48438 143.674 3.67188C143.668 3.82812 143.701 3.96449 143.772 4.08097C143.846 4.19744 143.947 4.2983 144.075 4.38352C144.202 4.46591 144.35 4.53835 144.518 4.60085C144.685 4.66051 144.864 4.71165 145.055 4.75426L145.839 4.94176C146.219 5.02699 146.569 5.14062 146.887 5.28267C147.205 5.42472 147.481 5.59943 147.714 5.80682C147.947 6.0142 148.127 6.25852 148.255 6.53977C148.386 6.82102 148.452 7.14347 148.455 7.5071C148.452 8.04119 148.316 8.50426 148.046 8.89631C147.779 9.28551 147.393 9.58807 146.887 9.80398C146.384 10.017 145.778 10.1236 145.068 10.1236C144.363 10.1236 143.749 10.0156 143.227 9.79972C142.707 9.58381 142.3 9.2642 142.008 8.84091C141.718 8.41477 141.566 7.88778 141.552 7.25994H143.337C143.357 7.55256 143.441 7.79687 143.589 7.9929C143.739 8.18608 143.94 8.33239 144.19 8.43182C144.443 8.52841 144.728 8.5767 145.046 8.5767C145.359 8.5767 145.63 8.53125 145.86 8.44034C146.093 8.34943 146.273 8.22301 146.401 8.06108C146.529 7.89915 146.593 7.71307 146.593 7.50284C146.593 7.30682 146.535 7.14205 146.418 7.00852C146.305 6.875 146.137 6.76136 145.916 6.66761C145.697 6.57386 145.428 6.48864 145.11 6.41193L144.16 6.1733C143.424 5.99432 142.843 5.71449 142.417 5.33381C141.991 4.95312 141.779 4.44034 141.782 3.79545C141.779 3.26705 141.92 2.8054 142.204 2.41051C142.491 2.01562 142.884 1.70739 143.384 1.4858C143.884 1.2642 144.452 1.15341 145.089 1.15341C145.737 1.15341 146.302 1.2642 146.785 1.4858C147.271 1.70739 147.648 2.01562 147.918 2.41051C148.188 2.8054 148.327 3.26278 148.336 3.78267H146.568ZM151.001 10H149.024L152.037 1.27273H154.415L157.423 10H155.446L153.26 3.26705H153.192L151.001 10ZM150.878 6.5696H155.548V8.00994H150.878V6.5696ZM158.961 1.27273L161.07 7.90341H161.151L163.265 1.27273H165.31L162.302 10H159.924L156.911 1.27273H158.961ZM166.36 10V1.27273H172.241V2.79403H168.206V4.87358H171.939V6.39489H168.206V8.47869H172.258V10H166.36ZM180.231 1.27273V10H178.386V3.02415H178.335L176.336 4.27699V2.64062L178.497 1.27273H180.231ZM185.727 10.1918C184.994 10.1889 184.364 10.0085 183.835 9.65057C183.31 9.29261 182.905 8.77415 182.621 8.09517C182.34 7.41619 182.2 6.59943 182.203 5.64489C182.203 4.69318 182.344 3.8821 182.625 3.21165C182.909 2.54119 183.314 2.03125 183.84 1.68182C184.368 1.32955 184.997 1.15341 185.727 1.15341C186.457 1.15341 187.085 1.32955 187.611 1.68182C188.139 2.03409 188.545 2.54545 188.83 3.21591C189.114 3.88352 189.254 4.69318 189.251 5.64489C189.251 6.60227 189.109 7.42045 188.825 8.09943C188.544 8.77841 188.141 9.29687 187.615 9.65483C187.09 10.0128 186.46 10.1918 185.727 10.1918ZM185.727 8.66193C186.227 8.66193 186.626 8.41051 186.925 7.90767C187.223 7.40483 187.371 6.65057 187.368 5.64489C187.368 4.98295 187.3 4.43182 187.163 3.99148C187.03 3.55114 186.84 3.22017 186.592 2.99858C186.348 2.77699 186.06 2.66619 185.727 2.66619C185.23 2.66619 184.832 2.91477 184.534 3.41193C184.236 3.90909 184.085 4.65341 184.082 5.64489C184.082 6.31534 184.149 6.875 184.283 7.32386C184.419 7.76989 184.611 8.10511 184.858 8.32955C185.105 8.55114 185.395 8.66193 185.727 8.66193ZM195.344 8.36364V7.90341C195.344 7.55398 195.418 7.23295 195.566 6.94034C195.716 6.64489 195.934 6.40909 196.218 6.23295C196.505 6.05398 196.854 5.96449 197.266 5.96449C197.684 5.96449 198.034 6.05256 198.319 6.22869C198.606 6.40483 198.821 6.64062 198.966 6.93608C199.114 7.22869 199.188 7.55114 199.188 7.90341V8.36364C199.188 8.71307 199.114 9.03551 198.966 9.33097C198.819 9.62358 198.601 9.85795 198.314 10.0341C198.027 10.2131 197.678 10.3026 197.266 10.3026C196.848 10.3026 196.498 10.2131 196.213 10.0341C195.929 9.85795 195.713 9.62358 195.566 9.33097C195.418 9.03551 195.344 8.71307 195.344 8.36364ZM196.584 7.90341V8.36364C196.584 8.56534 196.632 8.75568 196.729 8.93466C196.829 9.11364 197.007 9.20312 197.266 9.20312C197.525 9.20312 197.701 9.11506 197.794 8.93892C197.891 8.76278 197.939 8.57102 197.939 8.36364V7.90341C197.939 7.69602 197.894 7.50284 197.803 7.32386C197.712 7.14489 197.533 7.0554 197.266 7.0554C197.01 7.0554 196.833 7.14489 196.733 7.32386C196.634 7.50284 196.584 7.69602 196.584 7.90341ZM190.865 3.36932V2.90909C190.865 2.55682 190.941 2.23437 191.091 1.94176C191.242 1.64631 191.459 1.41051 191.743 1.23438C192.03 1.05824 192.377 0.97017 192.783 0.97017C193.204 0.97017 193.556 1.05824 193.84 1.23438C194.124 1.41051 194.34 1.64631 194.488 1.94176C194.635 2.23437 194.709 2.55682 194.709 2.90909V3.36932C194.709 3.72159 194.634 4.04403 194.483 4.33665C194.336 4.62926 194.118 4.86364 193.831 5.03977C193.547 5.21307 193.198 5.29972 192.783 5.29972C192.368 5.29972 192.017 5.21165 191.731 5.03551C191.446 4.85653 191.231 4.62216 191.083 4.33239C190.938 4.03977 190.865 3.71875 190.865 3.36932ZM192.114 2.90909V3.36932C192.114 3.5767 192.162 3.76847 192.259 3.9446C192.358 4.12074 192.533 4.20881 192.783 4.20881C193.044 4.20881 193.222 4.12074 193.316 3.9446C193.412 3.76847 193.461 3.5767 193.461 3.36932V2.90909C193.461 2.7017 193.415 2.50852 193.324 2.32955C193.233 2.15057 193.053 2.06108 192.783 2.06108C192.53 2.06108 192.356 2.15199 192.259 2.33381C192.162 2.51562 192.114 2.70739 192.114 2.90909ZM191.428 10L197.428 1.27273H198.544L192.544 10H191.428Z" fill="#FF6900"/>
<path d="M253.969 51V40.8182H257.986C258.758 40.8182 259.416 40.9657 259.96 41.2607C260.503 41.5523 260.918 41.9583 261.203 42.4787C261.491 42.9957 261.635 43.5923 261.635 44.2685C261.635 44.9446 261.489 45.5412 261.198 46.0582C260.906 46.5753 260.483 46.978 259.93 47.2663C259.38 47.5547 258.713 47.6989 257.931 47.6989H255.371V45.9737H257.583C257.998 45.9737 258.339 45.9025 258.607 45.7599C258.879 45.6141 259.081 45.4136 259.214 45.1584C259.35 44.8999 259.418 44.6032 259.418 44.2685C259.418 43.9304 259.35 43.6354 259.214 43.3835C259.081 43.1283 258.879 42.9311 258.607 42.7919C258.336 42.6494 257.991 42.5781 257.573 42.5781H256.122V51H253.969ZM263.033 51V40.8182H267.05C267.819 40.8182 268.476 40.9557 269.019 41.2308C269.566 41.5026 269.982 41.8887 270.267 42.3892C270.555 42.8864 270.7 43.4714 270.7 44.1442C270.7 44.8203 270.554 45.402 270.262 45.8892C269.97 46.3731 269.548 46.7443 268.994 47.0028C268.444 47.2614 267.778 47.3906 266.996 47.3906H264.306V45.6605H266.648C267.059 45.6605 267.4 45.6042 267.672 45.4915C267.944 45.3788 268.146 45.2098 268.278 44.9844C268.414 44.759 268.482 44.4789 268.482 44.1442C268.482 43.8061 268.414 43.5211 268.278 43.2891C268.146 43.0571 267.942 42.8814 267.667 42.7621C267.395 42.6394 267.052 42.5781 266.638 42.5781H265.186V51H263.033ZM268.532 46.3665L271.062 51H268.686L266.21 46.3665H268.532ZM272.221 51V40.8182H279.082V42.593H274.374V45.0192H278.729V46.794H274.374V49.2251H279.102V51H272.221ZM280.793 40.8182H283.448L286.252 47.6591H286.371L289.175 40.8182H291.83V51H289.742V44.3729H289.657L287.023 50.9503H285.601L282.966 44.348H282.881V51H280.793V40.8182ZM295.756 40.8182V51H293.604V40.8182H295.756ZM303.817 40.8182H305.969V47.4304C305.969 48.1728 305.792 48.8224 305.437 49.3793C305.086 49.9361 304.594 50.3703 303.961 50.6818C303.328 50.9901 302.59 51.1442 301.748 51.1442C300.903 51.1442 300.164 50.9901 299.531 50.6818C298.898 50.3703 298.406 49.9361 298.055 49.3793C297.703 48.8224 297.528 48.1728 297.528 47.4304V40.8182H299.68V47.2464C299.68 47.6342 299.765 47.9789 299.934 48.2805C300.106 48.5821 300.348 48.8191 300.66 48.9915C300.971 49.1638 301.334 49.25 301.748 49.25C302.166 49.25 302.529 49.1638 302.837 48.9915C303.149 48.8191 303.389 48.5821 303.558 48.2805C303.73 47.9789 303.817 47.6342 303.817 47.2464V40.8182ZM307.74 40.8182H310.395L313.199 47.6591H313.319L316.123 40.8182H318.777V51H316.689V44.3729H316.605L313.97 50.9503H312.548L309.913 44.348H309.828V51H307.74V40.8182Z" fill="black"/>
<path d="M257.347 3.78267C257.313 3.43892 257.166 3.17187 256.908 2.98153C256.649 2.79119 256.299 2.69602 255.855 2.69602C255.554 2.69602 255.3 2.73864 255.093 2.82386C254.885 2.90625 254.726 3.02131 254.615 3.16903C254.507 3.31676 254.453 3.48438 254.453 3.67188C254.448 3.82812 254.48 3.96449 254.551 4.08097C254.625 4.19744 254.726 4.2983 254.854 4.38352C254.982 4.46591 255.129 4.53835 255.297 4.60085C255.465 4.66051 255.644 4.71165 255.834 4.75426L256.618 4.94176C256.999 5.02699 257.348 5.14062 257.666 5.28267C257.985 5.42472 258.26 5.59943 258.493 5.80682C258.726 6.0142 258.906 6.25852 259.034 6.53977C259.165 6.82102 259.232 7.14347 259.235 7.5071C259.232 8.04119 259.095 8.50426 258.825 8.89631C258.558 9.28551 258.172 9.58807 257.666 9.80398C257.164 10.017 256.557 10.1236 255.847 10.1236C255.142 10.1236 254.529 10.0156 254.006 9.79972C253.486 9.58381 253.08 9.2642 252.787 8.84091C252.497 8.41477 252.345 7.88778 252.331 7.25994H254.117C254.137 7.55256 254.22 7.79687 254.368 7.9929C254.519 8.18608 254.719 8.33239 254.969 8.43182C255.222 8.52841 255.507 8.5767 255.825 8.5767C256.138 8.5767 256.409 8.53125 256.639 8.44034C256.872 8.34943 257.053 8.22301 257.181 8.06108C257.308 7.89915 257.372 7.71307 257.372 7.50284C257.372 7.30682 257.314 7.14205 257.198 7.00852C257.084 6.875 256.916 6.76136 256.695 6.66761C256.476 6.57386 256.208 6.48864 255.889 6.41193L254.939 6.1733C254.203 5.99432 253.622 5.71449 253.196 5.33381C252.77 4.95312 252.558 4.44034 252.561 3.79545C252.558 3.26705 252.699 2.8054 252.983 2.41051C253.27 2.01562 253.664 1.70739 254.164 1.4858C254.664 1.2642 255.232 1.15341 255.868 1.15341C256.516 1.15341 257.081 1.2642 257.564 1.4858C258.05 1.70739 258.428 2.01562 258.698 2.41051C258.968 2.8054 259.107 3.26278 259.115 3.78267H257.347ZM261.781 10H259.803L262.816 1.27273H265.194L268.203 10H266.225L264.039 3.26705H263.971L261.781 10ZM261.657 6.5696H266.328V8.00994H261.657V6.5696ZM269.74 1.27273L271.849 7.90341H271.93L274.044 1.27273H276.089L273.081 10H270.703L267.69 1.27273H269.74ZM277.14 10V1.27273H283.02V2.79403H278.985V4.87358H282.718V6.39489H278.985V8.47869H283.038V10H277.14ZM291.011 1.27273V10H289.165V3.02415H289.114L287.116 4.27699V2.64062L289.276 1.27273H291.011ZM296.272 10.1193C295.67 10.1193 295.133 10.0085 294.661 9.78693C294.193 9.56534 293.821 9.25994 293.545 8.87074C293.269 8.48153 293.126 8.03551 293.115 7.53267H294.904C294.924 7.87074 295.066 8.14489 295.33 8.35511C295.595 8.56534 295.909 8.67045 296.272 8.67045C296.562 8.67045 296.818 8.60653 297.039 8.47869C297.264 8.34801 297.438 8.16761 297.563 7.9375C297.691 7.70455 297.755 7.4375 297.755 7.13636C297.755 6.82955 297.69 6.55966 297.559 6.3267C297.431 6.09375 297.254 5.91193 297.026 5.78125C296.799 5.65057 296.539 5.58381 296.247 5.58097C295.991 5.58097 295.742 5.63352 295.501 5.73864C295.262 5.84375 295.076 5.98722 294.943 6.16903L293.302 5.875L293.715 1.27273H299.051V2.78125H295.237L295.011 4.96733H295.062C295.215 4.75142 295.447 4.57244 295.757 4.4304C296.066 4.28835 296.413 4.21733 296.796 4.21733C297.322 4.21733 297.791 4.34091 298.203 4.58807C298.615 4.83523 298.94 5.17472 299.178 5.60653C299.417 6.03551 299.535 6.52983 299.532 7.08949C299.535 7.67756 299.399 8.20028 299.123 8.65767C298.85 9.11222 298.468 9.47017 297.977 9.73153C297.488 9.99006 296.92 10.1193 296.272 10.1193ZM305.596 8.36364V7.90341C305.596 7.55398 305.67 7.23295 305.818 6.94034C305.968 6.64489 306.186 6.40909 306.47 6.23295C306.757 6.05398 307.106 5.96449 307.518 5.96449C307.936 5.96449 308.286 6.05256 308.571 6.22869C308.857 6.40483 309.073 6.64062 309.218 6.93608C309.366 7.22869 309.44 7.55114 309.44 7.90341V8.36364C309.44 8.71307 309.366 9.03551 309.218 9.33097C309.071 9.62358 308.853 9.85795 308.566 10.0341C308.279 10.2131 307.93 10.3026 307.518 10.3026C307.1 10.3026 306.75 10.2131 306.465 10.0341C306.181 9.85795 305.965 9.62358 305.818 9.33097C305.67 9.03551 305.596 8.71307 305.596 8.36364ZM306.836 7.90341V8.36364C306.836 8.56534 306.884 8.75568 306.981 8.93466C307.08 9.11364 307.259 9.20312 307.518 9.20312C307.776 9.20312 307.953 9.11506 308.046 8.93892C308.143 8.76278 308.191 8.57102 308.191 8.36364V7.90341C308.191 7.69602 308.146 7.50284 308.055 7.32386C307.964 7.14489 307.785 7.0554 307.518 7.0554C307.262 7.0554 307.085 7.14489 306.985 7.32386C306.886 7.50284 306.836 7.69602 306.836 7.90341ZM301.117 3.36932V2.90909C301.117 2.55682 301.193 2.23437 301.343 1.94176C301.494 1.64631 301.711 1.41051 301.995 1.23438C302.282 1.05824 302.629 0.97017 303.035 0.97017C303.455 0.97017 303.808 1.05824 304.092 1.23438C304.376 1.41051 304.592 1.64631 304.74 1.94176C304.887 2.23437 304.961 2.55682 304.961 2.90909V3.36932C304.961 3.72159 304.886 4.04403 304.735 4.33665C304.588 4.62926 304.37 4.86364 304.083 5.03977C303.799 5.21307 303.45 5.29972 303.035 5.29972C302.62 5.29972 302.269 5.21165 301.982 5.03551C301.698 4.85653 301.482 4.62216 301.335 4.33239C301.19 4.03977 301.117 3.71875 301.117 3.36932ZM302.366 2.90909V3.36932C302.366 3.5767 302.414 3.76847 302.511 3.9446C302.61 4.12074 302.785 4.20881 303.035 4.20881C303.296 4.20881 303.474 4.12074 303.568 3.9446C303.664 3.76847 303.713 3.5767 303.713 3.36932V2.90909C303.713 2.7017 303.667 2.50852 303.576 2.32955C303.485 2.15057 303.305 2.06108 303.035 2.06108C302.782 2.06108 302.607 2.15199 302.511 2.33381C302.414 2.51562 302.366 2.70739 302.366 2.90909ZM301.68 10L307.68 1.27273H308.796L302.796 10H301.68Z" fill="#FF6900"/>
<line x1="236.5" y1="23" x2="236.5" y2="70" stroke="#FF734F"/>
</svg>
